<mxfile host="app.diagrams.net" agent="Mozilla/5.0 (Windows NT 10.0; Win64; x64) AppleWebKit/537.36 (KHTML, like Gecko) Chrome/131.0.0.0 Safari/537.36 Edg/131.0.0.0" version="26.0.6">
  <diagram name="PÃ¡gina-1" id="ByPnyzdSTrtcEhe8VtN3">
    <mxGraphModel dx="1426" dy="781" grid="1" gridSize="10" guides="1" tooltips="1" connect="1" arrows="1" fold="1" page="1" pageScale="1" pageWidth="827" pageHeight="1169" background="#ffffff" math="0" shadow="0">
      <root>
        <mxCell id="0" />
        <mxCell id="1" parent="0" />
        <mxCell id="K6Pyr4SFYFlHtut3ddDA-1" value="Home router&lt;div&gt;192.168.1.1&lt;/div&gt;" style="verticalLabelPosition=bottom;sketch=0;aspect=fixed;html=1;verticalAlign=top;strokeColor=none;align=center;outlineConnect=0;shape=mxgraph.citrix.router;" parent="1" vertex="1">
          <mxGeometry x="379.35" y="230" width="55" height="36.5" as="geometry" />
        </mxCell>
        <mxCell id="K6Pyr4SFYFlHtut3ddDA-3" value="" style="verticalLabelPosition=bottom;html=1;verticalAlign=top;align=center;strokeColor=none;fillColor=#00BEF2;shape=mxgraph.azure.mobile;pointerEvents=1;" parent="1" vertex="1">
          <mxGeometry x="344.35" y="410" width="35" height="50" as="geometry" />
        </mxCell>
        <mxCell id="K6Pyr4SFYFlHtut3ddDA-4" value="" style="image;points=[];aspect=fixed;html=1;align=center;shadow=0;dashed=0;image=img/lib/allied_telesis/computer_and_terminals/Laptop.svg;" parent="1" vertex="1">
          <mxGeometry x="234.99" y="357.4" width="51.86" height="52.6" as="geometry" />
        </mxCell>
        <mxCell id="rJXVXiWx6eMoC_5AmnGX-2" value="" style="verticalLabelPosition=bottom;sketch=0;aspect=fixed;html=1;verticalAlign=top;strokeColor=none;align=center;outlineConnect=0;shape=mxgraph.citrix.printer;" parent="1" vertex="1">
          <mxGeometry x="470" y="390" width="60" height="60" as="geometry" />
        </mxCell>
        <mxCell id="rJXVXiWx6eMoC_5AmnGX-3" value="" style="image;html=1;image=img/lib/clip_art/computers/Server_Tower_128x128.png" parent="1" vertex="1">
          <mxGeometry x="170" y="266.5" width="50" height="70" as="geometry" />
        </mxCell>
        <mxCell id="rJXVXiWx6eMoC_5AmnGX-6" style="edgeStyle=orthogonalEdgeStyle;rounded=0;orthogonalLoop=1;jettySize=auto;html=1;endArrow=none;endFill=0;" parent="1" source="rJXVXiWx6eMoC_5AmnGX-4" target="K6Pyr4SFYFlHtut3ddDA-1" edge="1">
          <mxGeometry relative="1" as="geometry" />
        </mxCell>
        <mxCell id="rJXVXiWx6eMoC_5AmnGX-4" value="&lt;span&gt;&lt;font style=&quot;font-size: 8px;&quot;&gt;192.168.1.213&lt;/font&gt;&lt;/span&gt;" style="sketch=0;pointerEvents=1;shadow=0;dashed=0;html=1;strokeColor=none;fillColor=#434445;aspect=fixed;labelPosition=center;verticalLabelPosition=bottom;verticalAlign=top;align=center;outlineConnect=0;shape=mxgraph.vvd.ethernet_port;direction=south;" parent="1" vertex="1">
          <mxGeometry x="221.75" y="310" width="20" height="20" as="geometry" />
        </mxCell>
        <mxCell id="rJXVXiWx6eMoC_5AmnGX-10" value="Internet" style="ellipse;shape=cloud;whiteSpace=wrap;html=1;" parent="1" vertex="1">
          <mxGeometry x="316.85" y="70" width="180" height="130" as="geometry" />
        </mxCell>
        <mxCell id="rJXVXiWx6eMoC_5AmnGX-12" style="edgeStyle=orthogonalEdgeStyle;rounded=0;orthogonalLoop=1;jettySize=auto;html=1;entryX=0.499;entryY=0.955;entryDx=0;entryDy=0;entryPerimeter=0;startArrow=classic;startFill=1;endArrow=classic;endFill=1;" parent="1" source="K6Pyr4SFYFlHtut3ddDA-1" target="rJXVXiWx6eMoC_5AmnGX-10" edge="1">
          <mxGeometry relative="1" as="geometry" />
        </mxCell>
        <mxCell id="rJXVXiWx6eMoC_5AmnGX-17" value="&lt;font style=&quot;font-size: 8px;&quot;&gt;192.168.1.142&lt;/font&gt;" style="sketch=0;pointerEvents=1;shadow=0;dashed=0;html=1;strokeColor=none;fillColor=#434445;aspect=fixed;labelPosition=center;verticalLabelPosition=bottom;verticalAlign=top;align=left;outlineConnect=0;shape=mxgraph.vvd.wi_fi;" parent="1" vertex="1">
          <mxGeometry x="220" y="260" width="23.5" height="23.5" as="geometry" />
        </mxCell>
        <mxCell id="rJXVXiWx6eMoC_5AmnGX-18" value="&lt;font style=&quot;font-size: 8px;&quot;&gt;192.168.1.15&lt;/font&gt;" style="sketch=0;pointerEvents=1;shadow=0;dashed=0;html=1;strokeColor=none;fillColor=#434445;aspect=fixed;labelPosition=center;verticalLabelPosition=bottom;verticalAlign=top;align=left;outlineConnect=0;shape=mxgraph.vvd.wi_fi;" parent="1" vertex="1">
          <mxGeometry x="286.85" y="350" width="23.5" height="23.5" as="geometry" />
        </mxCell>
        <mxCell id="rJXVXiWx6eMoC_5AmnGX-19" value="&lt;font style=&quot;font-size: 8px;&quot;&gt;192.168.1.240&lt;/font&gt;" style="sketch=0;pointerEvents=1;shadow=0;dashed=0;html=1;strokeColor=none;fillColor=#434445;aspect=fixed;labelPosition=center;verticalLabelPosition=bottom;verticalAlign=top;align=left;outlineConnect=0;shape=mxgraph.vvd.wi_fi;" parent="1" vertex="1">
          <mxGeometry x="380" y="386.5" width="23.5" height="23.5" as="geometry" />
        </mxCell>
        <mxCell id="rJXVXiWx6eMoC_5AmnGX-20" value="&lt;font style=&quot;font-size: 8px;&quot;&gt;192.168.1.155&lt;/font&gt;" style="sketch=0;pointerEvents=1;shadow=0;dashed=0;html=1;strokeColor=none;fillColor=#434445;aspect=fixed;labelPosition=center;verticalLabelPosition=bottom;verticalAlign=top;align=left;outlineConnect=0;shape=mxgraph.vvd.wi_fi;" parent="1" vertex="1">
          <mxGeometry x="520" y="366.5" width="23.5" height="23.5" as="geometry" />
        </mxCell>
      </root>
    </mxGraphModel>
  </diagram>
</mxfile>
